PathFileType	4	(X/Y/Z)	Patient4_TMGait_0pt5_01_right_20.trc.trc
DataRate	CameraRate	NumFrames	NumMarkers	Units	OrigDataRate	OrigDataStartFrame	OrigNumFrames
75.675675675676	75.675675675676	5	33	mm	75.675675675676	89	       141
Frame#	Time	L.ASIS			Sacral			L.Shoulder			Chest			R.Shoulder			Neck			R.ASIS			R.Thigh.Superior			R.Thigh.Lateral			R.Thigh.Inferior			R.Patella			L.Thigh.Superior			L.Thigh.Lateral			L.Thigh.Inferior			L.Patella			L.Shank.Superior			L.Shank.Lateral			L.Shank.Inferior			R.Shank.Superior			R.Shank.Lateral			R.Shank.Inferior			R.Heel			R.Midfoot.Superior			R.Midfoot.Lateral			R.Toe			L.Heel			L.Midfoot.Lateral			L.Midfoot.Superior			L.Toe			L.Elbow			L.Wrist			R.Elbow			R.Wrist			
		X1	Y1	Z1	X2	Y2	Z2	X3	Y3	Z3	X4	Y4	Z4	X5	Y5	Z5	X6	Y6	Z6	X7	Y7	Z7	X8	Y8	Z8	X9	Y9	Z9	X10	Y10	Z10	X11	Y11	Z11	X12	Y12	Z12	X13	Y13	Z13	X14	Y14	Z14	X15	Y15	Z15	X16	Y16	Z16	X17	Y17	Z17	X18	Y18	Z18	X19	Y19	Z19	X20	Y20	Z20	X21	Y21	Z21	X22	Y22	Z22	X23	Y23	Z23	X24	Y24	Z24	X25	Y25	Z25	X26	Y26	Z26	X27	Y27	Z27	X28	Y28	Z28	X29	Y29	Z29	X30	Y30	Z30	X31	Y31	Z31	X32	Y32	Z32	X33	Y33	Z33	

89	27.312857142857	892.217489089075	960.453715191319	301.406139785342	689.092481892321	1002.981520629536	473.170987125634	833.136362286295	1424.790870243476	267.460157391469	954.505826014928	1361.305596272562	418.495018997234	889.695052916834	1443.344749952461	597.512538180620	851.173611185671	1492.726050449156	413.525446549477	921.695645532923	936.272622101069	574.027997551083	966.630116585984	737.062729471155	550.478995978699	892.890573612783	624.894126444357	617.463127828386	975.066549366306	568.348098198891	542.181020225550	967.245558385996	456.087324138621	561.583263643734	955.701642817352	759.692253482329	325.341990714709	873.389924943989	637.773064406713	273.969642912640	968.246359645647	567.972923406434	331.369412429299	974.142905295912	497.653268339155	340.443100857816	952.824130549044	424.089097367784	335.526019514521	868.761863803691	301.403879336915	294.792315741052	936.809238152028	197.683939836313	364.669954288448	886.599637862049	390.976432325805	562.138142958767	762.989921211196	354.760594182422	618.381142203623	744.685169387110	249.363094921219	563.986256176029	538.671801996808	189.788103619376	526.601228751285	708.058459975977	140.398055261702	577.750004688260	597.016125775213	139.013098369682	606.555032744662	774.366198790020	38.121664107438	615.827153024620	822.585367880409	37.518610105793	419.468319153466	893.520251320902	34.705002430090	335.303233554215	976.521060131580	97.661010015961	357.152387954462	1104.247682720074	49.095086176635	327.331589887132	781.349666719865	1067.133136152533	168.161402717797	865.361057626302	819.323826406328	165.742071901931	954.398476612058	1104.871896962005	714.838898851801	1176.990341462434	1041.777056878289	610.606586761337	
90	27.326071428571	892.777031408735	961.226536983794	300.190430543235	688.786426128735	1003.299842468952	470.846357184513	834.403583386711	1424.661610865480	264.747093030994	954.456898655918	1361.810110685083	417.123313017405	887.961606196873	1444.255469092464	595.378827948256	851.205704199801	1493.243111490601	410.720257907869	921.007996288091	936.894052304016	572.883093368228	970.912354731041	740.623423070570	549.526170142548	900.394743599794	627.034804951645	617.270509233629	984.543866862816	572.048365907372	542.632905598588	978.713396007188	458.842558356271	562.547742800593	954.218345786122	759.014923035672	322.847201797251	870.165607483852	637.993485781121	272.542966634912	964.453744365218	567.290566861145	329.507314773227	969.567807653456	497.108180657095	338.760980747502	947.920144959916	423.718680713453	334.134690670627	862.955007495547	301.415269086207	293.999649268915	930.757816751313	197.511341889903	363.887005205839	896.931681615520	393.802761754253	562.442228915531	771.811272579478	360.408665806357	617.412223715419	751.791653042525	255.322667477999	563.208698083955	544.996808201212	201.046200262980	523.714001582899	712.518182530232	146.913282557949	576.874976336973	601.014297592631	148.923136025218	604.586025494628	775.527232377193	41.286513359140	616.449188664405	815.968286808103	37.554720353788	419.292662494537	886.880720189534	34.634631052046	335.127456660639	969.960578661609	97.617680751727	356.832081876856	1097.661503924180	48.923928989106	327.157134157183	789.894056413594	1066.487762505862	163.531646300402	879.684472098619	820.727011264887	159.990682733477	942.541707467160	1104.144983417584	714.823757559930	1162.777420600167	1027.618962479098	613.838688202685	
91	27.339285714286	893.239689625529	962.058574801999	299.053846828865	688.450957364680	1003.719237421070	468.683614411745	835.522522867443	1424.664520929714	262.257597235381	954.296043990946	1362.427680484115	415.899878964429	886.197508267069	1445.223121550484	593.418792037468	851.208361541762	1493.849332409813	408.133572737905	920.228667086238	937.703213121759	571.803254447891	974.815691815024	744.417386234900	548.653272886425	907.503063932649	629.567644577673	617.194855641581	993.409166689248	576.173180883129	543.094335626946	989.732230172426	462.177500610656	563.461512106369	952.649329736980	758.410528948863	320.770781806428	866.860134967224	638.271736177574	271.412320524761	960.499915224122	566.641622366371	328.054357458677	964.801819176706	496.611543266664	337.516367239017	942.876223395320	423.430656074620	333.091732516447	857.095569711871	301.509822251609	293.419115903136	924.651201403696	197.393417323571	363.281262623775	907.148620713388	396.969598956497	562.837151980309	780.821828299178	365.774072684175	616.659743596302	759.528475163848	260.947991074786	562.635491549339	552.311758270897	210.661706438116	521.229889577805	718.181284989779	153.025540644655	576.142602872045	606.415060113872	157.616684002389	602.915106214679	778.664413809121	44.913410557143	617.092256541689	809.339401231269	37.598833261393	419.124533160304	880.236751691338	34.589657149622	334.976811385862	963.380350641938	97.603359726172	356.554466577955	1091.053213653446	48.809801075477	326.990958123685	798.585767689099	1066.157740718593	159.101212331411	893.830121301431	822.505905846192	154.419353805620	930.408059887341	1103.757204478771	714.812650602722	1147.484687149230	1013.242118057533	617.672041830859	
92	27.352500000000	893.627713599033	962.919695011307	298.005364258297	688.095971686156	1004.249212004205	466.674333514856	836.506622589173	1424.818484723957	259.982905210253	954.041338731998	1363.167921694950	414.810244534061	884.421441546768	1446.259159638803	591.618705452560	851.179136207228	1494.545159768799	405.761546062343	919.371782706766	938.709486921792	570.794047291121	978.320647350541	748.382663052075	547.880893494942	914.151675760321	632.421076236723	617.207825340019	1001.599312893703	580.635565722995	543.530730126649	1000.201464950633	466.010879930651	564.295186418623	950.996041232342	757.858962454585	319.171848330339	863.507985401085	638.599609045057	270.565221448811	956.395980029349	566.015144359509	327.036459507987	959.862392878852	496.156273671975	336.723587061180	937.708309413875	423.215746740872	332.405337127766	851.212032312969	301.673643419293	293.039452281422	918.496131668608	197.320699746574	362.865315889465	917.170609697833	400.393569317541	563.307011943760	789.966234741725	370.676120088739	616.172830791158	767.884536871163	266.026969484155	562.324332721711	560.548126068706	218.325591446242	519.332549899900	725.105085362595	158.411620323693	575.609233874931	613.238983028798	164.737849262331	601.670329719435	783.913828861830	48.694165591846	617.730096628106	802.694634876134	37.645493947336	418.970977680029	873.585750435091	34.568402879477	334.854422448076	956.779203195839	97.609112809025	356.332334129560	1084.421781168353	48.744480489217	326.841474232755	807.349128251304	1066.173383076455	154.893589777111	907.755439255688	824.683437571317	149.078848332172	918.140912109200	1103.757046950968	714.771344713575	1131.158568214998	998.763707490904	622.101876206249	
93	27.365714285714	893.957894327030	963.768666237506	297.055538206887	687.724668381458	1004.879567020152	464.807845630670	837.384370786316	1425.121853479971	257.910334801754	953.717478779631	1364.017177429392	413.843940520676	882.650239342615	1447.353166860563	589.965960433755	851.116562694149	1495.314147817655	403.598129686618	918.454987395498	939.896009809888	569.866937330796	981.428768307065	752.443033993416	547.225381947749	920.303316400769	635.501958288598	617.281689608692	1009.084687236521	585.326885947290	543.912798935534	1010.045418273164	470.239369398061	565.020084158351	949.260005415355	757.333708066199	318.086770578679	860.150509122849	638.962444515861	269.970550912150	952.162080118632	565.398955669933	326.453789475417	954.776801918900	495.732167156685	336.366104181628	932.440896437171	423.058103042237	332.059784554304	845.338234510067	301.885482341034	292.832851938369	912.304937453746	197.279863722914	362.638965653157	926.935754704295	403.974418775481	563.829374908593	799.203974030231	374.942342886418	615.988127025185	776.847017807776	270.363946672670	562.316070078820	569.645733640026	223.803645377474	518.170309173864	733.327332068825	162.790181032744	575.331312738917	621.485428794546	170.006043053461	600.962026515259	791.351150642404	52.289738222461	618.360338128036	796.032194192516	37.689720307363	418.838437094975	866.927188455753	34.568019755588	334.761872186357	950.159948299546	97.623861298004	356.174720377688	1077.770068242959	48.712309359810	326.715197118639	816.085811487862	1066.540297544158	150.923132488196	921.425798538070	827.269938157827	144.016633494168	905.885944298898	1104.156065082967	714.675783126703	1113.848404788667	984.319753561992	627.116241868740	
